<svg width="978" height="195" viewBox="0 0 978 195" fill="none" xmlns="http://www.w3.org/2000/svg">
<path d="M163.167 161V71.7622H189.3V102.517L183.922 99.1554C184.539 94.954 185.659 91.0887 187.284 87.5595C188.908 84.0303 191.009 80.9773 193.586 78.4004C196.163 75.7676 199.216 73.7229 202.745 72.2664C206.33 70.8099 210.419 70.0817 215.013 70.0817C218.598 70.0817 221.399 70.3617 223.416 70.9219C225.488 71.4261 226.777 71.8182 227.281 72.0983L222.996 95.4582C222.491 95.1781 221.371 94.7299 219.634 94.1137C217.898 93.4975 215.657 93.1894 212.912 93.1894C208.431 93.1894 204.677 93.9457 201.652 95.4582C198.627 96.9707 196.191 98.9874 194.342 101.508C192.549 103.973 191.261 106.718 190.477 109.743C189.692 112.768 189.3 115.821 189.3 118.902V161H163.167Z" fill="black"/>
<path d="M243.783 124.196V106.97H302.939L300.418 111.34C300.418 110.891 300.418 110.471 300.418 110.079C300.418 109.631 300.418 109.211 300.418 108.819C300.418 105.626 299.662 102.573 298.15 99.6596C296.637 96.6906 294.284 94.2818 291.091 92.4332C287.954 90.5285 283.921 89.5762 278.991 89.5762C274.062 89.5762 269.804 90.6406 266.219 92.7693C262.69 94.842 259.973 97.839 258.068 101.76C256.22 105.682 255.295 110.415 255.295 115.961C255.295 121.675 256.192 126.577 257.984 130.666C259.833 134.699 262.55 137.808 266.135 139.993C269.776 142.178 274.286 143.27 279.663 143.27C283.137 143.27 286.134 142.962 288.654 142.346C291.175 141.674 293.22 140.833 294.789 139.825C296.413 138.817 297.645 137.696 298.486 136.464C299.326 135.232 299.83 134.027 299.998 132.851H325.711C325.375 136.604 324.086 140.301 321.846 143.942C319.605 147.528 316.496 150.777 312.518 153.69C308.541 156.547 303.696 158.815 297.982 160.496C292.324 162.177 285.854 163.017 278.571 163.017C268.712 163.017 260.113 161.056 252.774 157.135C245.436 153.158 239.75 147.696 235.717 140.749C231.683 133.747 229.667 125.68 229.667 116.549C229.667 107.306 231.711 99.2114 235.801 92.2651C239.946 85.2628 245.688 79.8289 253.026 75.9636C260.421 72.0423 268.964 70.0817 278.655 70.0817C288.57 70.0817 297.141 72.0703 304.368 76.0477C311.594 79.969 317.168 85.4868 321.089 92.6012C325.011 99.6596 326.971 107.894 326.971 117.306C326.971 118.706 326.943 120.05 326.887 121.339C326.831 122.627 326.747 123.58 326.635 124.196H243.783Z" fill="black"/>
<path d="M401.062 161V123.103C401.062 120.975 401.062 119.042 401.062 117.306C401.062 115.569 401.062 114 401.062 112.6C401.062 108.903 400.586 105.542 399.633 102.517C398.681 99.4355 396.973 96.9707 394.508 95.1221C392.043 93.2734 388.486 92.3491 383.836 92.3491C379.803 92.3491 376.302 93.2734 373.333 95.1221C370.42 96.9707 368.179 99.5476 366.61 102.853C365.042 106.158 364.258 109.967 364.258 114.281L357.031 109.071C357.031 101.34 358.712 94.5619 362.073 88.7359C365.434 82.91 369.971 78.3444 375.685 75.0393C381.455 71.7342 387.842 70.0817 394.844 70.0817C402.182 70.0817 408.204 71.5662 412.91 74.5351C417.672 77.4481 421.201 81.5375 423.497 86.8033C425.85 92.013 427.027 98.1191 427.027 105.121C427.027 107.978 427.027 111.171 427.027 114.701C427.027 118.23 427.027 121.843 427.027 125.54V161H401.062ZM338.209 161V71.7622H364.258V161H338.209Z" fill="black"/>
<path d="M455.854 163.521C451.988 163.521 448.711 162.177 446.022 159.488C443.333 156.799 441.989 153.522 441.989 149.656C441.989 145.847 443.333 142.598 446.022 139.909C448.711 137.22 451.988 135.876 455.854 135.876C459.663 135.876 462.912 137.22 465.601 139.909C468.29 142.598 469.634 145.847 469.634 149.656C469.634 153.522 468.29 156.799 465.601 159.488C462.912 162.177 459.663 163.521 455.854 163.521Z" fill="black"/>
<path d="M548.203 161V129.238C548.203 128.117 548.203 126.577 548.203 124.616C548.203 122.655 548.203 120.667 548.203 118.65C548.203 116.633 548.203 115.009 548.203 113.776C548.203 106.942 546.971 101.676 544.506 97.979C542.041 94.2258 537.532 92.3491 530.978 92.3491C526.72 92.3491 523.135 93.2174 520.222 94.954C517.309 96.6346 515.096 99.0154 513.584 102.096C512.127 105.177 511.399 108.791 511.399 112.936L503.836 107.726C503.836 100.276 505.433 93.7496 508.626 88.1477C511.819 82.4898 516.217 78.0643 521.818 74.8713C527.476 71.6782 534.003 70.0817 541.397 70.0817C552.321 70.0817 560.527 73.3027 566.017 79.7449C571.507 86.131 574.252 95.038 574.252 106.466C574.252 109.379 574.252 112.88 574.252 116.969C574.252 121.059 574.252 125.792 574.252 131.17V161H548.203ZM485.35 161V29.6641H511.399V161H485.35Z" fill="black"/>
<path d="M633.329 162.933C623.694 162.933 615.207 160.944 607.869 156.967C600.53 152.99 594.788 147.528 590.643 140.581C586.553 133.579 584.509 125.512 584.509 116.381C584.509 107.306 586.553 99.2955 590.643 92.3491C594.788 85.3468 600.53 79.913 607.869 76.0477C615.207 72.1263 623.694 70.1657 633.329 70.1657C642.964 70.1657 651.451 72.1263 658.79 76.0477C666.128 79.913 671.842 85.3468 675.931 92.3491C680.077 99.2955 682.15 107.306 682.15 116.381C682.15 125.512 680.077 133.579 675.931 140.581C671.842 147.528 666.128 152.99 658.79 156.967C651.451 160.944 642.964 162.933 633.329 162.933ZM633.329 142.262C637.867 142.262 641.816 141.198 645.177 139.069C648.538 136.94 651.143 133.943 652.992 130.078C654.84 126.157 655.765 121.591 655.765 116.381C655.765 111.171 654.84 106.662 652.992 102.853C651.143 98.9874 648.538 96.0184 645.177 93.9457C641.816 91.873 637.867 90.8366 633.329 90.8366C628.848 90.8366 624.898 91.873 621.481 93.9457C618.12 96.0184 615.515 98.9874 613.667 102.853C611.818 106.662 610.894 111.171 610.894 116.381C610.894 121.591 611.818 126.157 613.667 130.078C615.515 133.943 618.12 136.94 621.481 139.069C624.898 141.198 628.848 142.262 633.329 142.262Z" fill="black"/>
<path d="M725.058 162.681C718.728 162.681 713.518 161.672 709.429 159.656C705.339 157.583 702.118 154.81 699.765 151.337C697.413 147.864 695.76 143.998 694.808 139.741C693.855 135.484 693.379 131.17 693.379 126.801C693.379 124.784 693.379 122.655 693.379 120.415C693.379 118.174 693.379 115.877 693.379 113.524V71.7622H719.428V109.407C719.428 111.312 719.428 113.16 719.428 114.953C719.428 116.745 719.428 118.398 719.428 119.91C719.428 123.664 719.848 127.109 720.688 130.246C721.529 133.383 723.069 135.904 725.31 137.808C727.607 139.713 730.856 140.665 735.057 140.665C739.147 140.665 742.62 139.517 745.477 137.22C748.334 134.867 750.518 131.87 752.031 128.229C753.543 124.588 754.3 120.835 754.3 116.969L761.61 122.935C761.61 128.537 760.742 133.747 759.005 138.565C757.325 143.382 754.916 147.612 751.779 151.253C748.642 154.838 744.804 157.639 740.267 159.656C735.785 161.672 730.716 162.681 725.058 162.681ZM754.3 161V71.7622H780.348V161H754.3Z" fill="black"/>
<path d="M831.99 163.017C826.669 163.017 821.543 162.401 816.613 161.168C811.683 159.936 807.258 158.115 803.337 155.706C799.471 153.298 796.39 150.301 794.094 146.715C791.853 143.074 790.732 138.845 790.732 134.027C790.732 133.803 790.732 133.551 790.732 133.271C790.732 132.935 790.732 132.683 790.732 132.515H816.613C816.613 132.683 816.613 132.879 816.613 133.103C816.613 133.271 816.613 133.467 816.613 133.691C816.613 136.94 818.042 139.321 820.899 140.833C823.812 142.346 827.733 143.102 832.662 143.102C835.239 143.102 837.704 142.85 840.057 142.346C842.466 141.786 844.426 140.917 845.939 139.741C847.507 138.509 848.292 136.968 848.292 135.12C848.292 132.151 846.639 130.05 843.334 128.817C840.085 127.585 834.847 126.353 827.621 125.12C823.531 124.448 819.386 123.496 815.185 122.263C810.983 121.031 807.118 119.406 803.589 117.39C800.06 115.317 797.231 112.712 795.102 109.575C792.973 106.382 791.909 102.517 791.909 97.979C791.909 91.929 793.729 86.8313 797.371 82.6859C801.068 78.5405 805.97 75.4034 812.076 73.2747C818.182 71.146 824.904 70.0817 832.242 70.0817C839.245 70.0817 845.771 71.258 851.821 73.6108C857.871 75.9076 862.773 79.2407 866.526 83.6102C870.279 87.9236 872.156 93.1334 872.156 99.2395C872.156 99.3515 872.156 99.5195 872.156 99.7436C872.156 99.9677 872.156 100.192 872.156 100.416H846.527C846.527 100.192 846.527 99.9957 846.527 99.8277C846.527 99.6596 846.527 99.5195 846.527 99.4075C846.527 97.1668 845.799 95.3461 844.342 93.9457C842.942 92.5452 841.149 91.5089 838.965 90.8366C836.78 90.1084 834.511 89.7443 832.158 89.7443C830.03 89.7443 827.817 89.9963 825.52 90.5005C823.279 90.9487 821.375 91.7329 819.806 92.8533C818.238 93.9177 817.453 95.4302 817.453 97.3908C817.453 99.2955 818.294 100.864 819.974 102.096C821.655 103.273 824.008 104.253 827.033 105.037C830.058 105.766 833.559 106.466 837.536 107.138C841.289 107.754 845.239 108.623 849.384 109.743C853.586 110.807 857.507 112.348 861.148 114.365C864.845 116.325 867.814 118.93 870.055 122.179C872.352 125.372 873.5 129.434 873.5 134.363C873.5 139.461 872.324 143.83 869.971 147.472C867.618 151.113 864.425 154.082 860.392 156.379C856.415 158.619 851.961 160.272 847.031 161.336C842.158 162.457 837.144 163.017 831.99 163.017Z" fill="black"/>
<path d="M894.667 124.196V106.97H953.823L951.302 111.34C951.302 110.891 951.302 110.471 951.302 110.079C951.302 109.631 951.302 109.211 951.302 108.819C951.302 105.626 950.546 102.573 949.034 99.6596C947.521 96.6906 945.168 94.2818 941.975 92.4332C938.838 90.5285 934.805 89.5762 929.875 89.5762C924.946 89.5762 920.688 90.6406 917.103 92.7693C913.574 94.842 910.857 97.839 908.952 101.76C907.104 105.682 906.179 110.415 906.179 115.961C906.179 121.675 907.076 126.577 908.868 130.666C910.717 134.699 913.434 137.808 917.019 139.993C920.66 142.178 925.17 143.27 930.548 143.27C934.021 143.27 937.018 142.962 939.539 142.346C942.059 141.674 944.104 140.833 945.673 139.825C947.297 138.817 948.53 137.696 949.37 136.464C950.21 135.232 950.714 134.027 950.882 132.851H976.595C976.259 136.604 974.97 140.301 972.73 143.942C970.489 147.528 967.38 150.777 963.403 153.69C959.425 156.547 954.58 158.815 948.866 160.496C943.208 162.177 936.738 163.017 929.455 163.017C919.596 163.017 910.997 161.056 903.658 157.135C896.32 153.158 890.634 147.696 886.601 140.749C882.567 133.747 880.551 125.68 880.551 116.549C880.551 107.306 882.595 99.2114 886.685 92.2651C890.83 85.2628 896.572 79.8289 903.911 75.9636C911.305 72.0423 919.848 70.0817 929.539 70.0817C939.455 70.0817 948.025 72.0703 955.252 76.0477C962.478 79.969 968.052 85.4868 971.973 92.6012C975.895 99.6596 977.855 107.894 977.855 117.306C977.855 118.706 977.827 120.05 977.771 121.339C977.715 122.627 977.631 123.58 977.519 124.196H894.667Z" fill="black"/>
<path d="M65 33.5L33 17.5V81.5L65 97.5V33.5Z" fill="#F19389"/>
<path d="M65 33.5L97 49.5V113.5L65 97.5V33.5Z" fill="#F19389"/>
<path d="M1 161.5V97.5L33 113.5V177.5L1 161.5Z" fill="#F19389"/>
<path d="M65 193.5V129.5L33 113.5V177.5L65 193.5Z" fill="#F19389"/>
<path d="M129 33.5L97 49.5V113.5L65 129.5V193.5L129 161.5V33.5Z" fill="#F98534"/>
<path d="M65 1.5L33 17.5L65 33.5L97 17.5L65 1.5Z" fill="#F3CE49"/>
<path d="M65 33.5L97 49.5L129 33.5L97 17.5L65 33.5Z" fill="#F3CE49"/>
<path d="M1 97.5L33 81.5L65 97.5L33 113.5L1 97.5Z" fill="#F3CE49"/>
<path d="M65 129.5L33 113.5L65 97.5L97 113.5L65 129.5Z" fill="#F3CE49"/>
<path d="M33 17.5L65 1.5L97 17.5M33 17.5L65 33.5M33 17.5V49.5V81.5M65 33.5L97 49.5M65 33.5V97.5M65 33.5L97 17.5M97 49.5L129 33.5M97 49.5V113.5M129 33.5L97 17.5M129 33.5V97.5V161.5L65 193.5M33 81.5L65 97.5M33 81.5L1 97.5M65 97.5L97 113.5M65 97.5L33 113.5M97 113.5L65 129.5M65 193.5V129.5M65 193.5L33 177.5M65 129.5L33 113.5M1 97.5L33 113.5M1 97.5V161.5L33 177.5M33 113.5V177.5" stroke="black"/>
</svg>
